<svg xmlns="http://www.w3.org/2000/svg" xmlns:xlink="http://www.w3.org/1999/xlink" width="1080" height="1080" viewBox="0 0 1080 1080">
  <defs>
    <clipPath id="clip-Custom_Size_1">
      <rect width="1080" height="1080"/>
    </clipPath>
  </defs>
  <g id="Custom_Size_1" data-name="Custom Size – 1" clip-path="url(#clip-Custom_Size_1)">
    <rect width="1080" height="1080" fill="#fff"/>
    <g id="Group_1" data-name="Group 1" transform="translate(134.689 72.523)">
      <path id="Path_8" data-name="Path 8" d="M180.756,289.5a56.1,56.1,0,0,0-66.4-4.951c0,.583-.874.291-.874.874a66.885,66.885,0,0,0-12.232,10.193c-.874.874-1.165,1.747-2.039,2.621A27.459,27.459,0,0,1,96.3,301.15c-30,34.366-11.65,99.895-11.65,99.895s66.694,8.446,96.691-25.92l2.912-2.912a30.786,30.786,0,0,0,2.621-3.786,44.293,44.293,0,0,0,8.737-13.4c0-.582,0-.582.874-.874C205.8,331.147,199.687,304.936,180.756,289.5Z" transform="translate(92.355 373.285)" fill="#200e4e"/>
      <path id="Path_9" data-name="Path 9" d="M283.3,190.1,93.125,215.147,30.8,287.665c45.725,13.688,97.274,38.152,150.279,72.519A986.765,986.765,0,0,1,283.3,190.1Z" transform="translate(0 209.113)" fill="#200e4e"/>
      <path id="Path_10" data-name="Path 10" d="M402.473,88.461V88.17a14.015,14.015,0,0,0-2.621-3.2C385,71.86,312.189,89.335,225.4,137.389L372.476,267.282C405.677,178.745,413.832,108.557,402.473,88.461Z" transform="translate(372.152)" fill="#200e4e"/>
      <path id="Path_11" data-name="Path 11" d="M254.189,285.333c-75.431,87.372-132.805,176.2-166.589,252.5a782.005,782.005,0,0,1,89.7,68.15c21.843,18.639,42.23,38.152,61.16,57.665,6.407,6.407,12.523,13.106,18.348,19.513h0l1.165,1.165c69.9-45.433,149.406-115.913,223.963-202.7A891.694,891.694,0,0,0,617.656,266.4l.583-1.456c.874-2.33,2.039-4.66,2.912-6.99,1.456-3.495,2.912-6.99,4.369-10.193l1.456-3.495.874-2.039L470.58,103.6A886.926,886.926,0,0,0,254.189,285.333Zm273.765-89.119a76.388,76.388,0,1,1-.582-.291,1.017,1.017,0,0,1,.582.291Z" transform="translate(108.624 43.691)" fill="#200e4e"/>
      <path id="Path_12" data-name="Path 12" d="M150.3,388.385a626.777,626.777,0,0,1,80.382,113,199.393,199.393,0,0,1,74.848-48.637L300.579,264.9A999.831,999.831,0,0,1,150.3,388.385Z" transform="translate(228.531 352.16)" fill="#200e4e"/>
    </g>
  </g>
</svg>
